<svg xmlns="http://www.w3.org/2000/svg" xmlns:xlink="http://www.w3.org/1999/xlink" width="430" height="1061.5" viewBox="0 0 430 1061.5" role="img"><title>NAOSIQ - propuesta de interfaz</title><defs><linearGradient id="brand-grad" x1="0" y1="0" x2="1" y2="1"><stop stop-color="#7C3AED"/><stop offset="1" stop-color="#06B6D4"/></linearGradient></defs><rect x="0" y="0" width="430" height="1061.5" rx="0" fill="#F7F8FC"/><rect x="0" y="0" width="430" height="94" rx="0" fill="white"/><path d="M0 94L430 94" fill="none" stroke="#E5E7EB" stroke-width="1"/><text x="22" y="37.0" fill="#0B0F1A" font-family="Inter, Arial, sans-serif" font-size="20" font-weight="600">TECNO CELL</text><text x="22" y="59.0" fill="#526071" font-family="Inter, Arial, sans-serif" font-size="12" font-weight="400">Gestionado con NAOSIQ</text><g transform="translate(384,31) scale(0.9583333333333334)"><path d="M12 3A4 4 0 1 0 12 11A4 4 0 1 0 12 3M4 21V18C4 11 20 11 20 18V21" fill="none" stroke="#7C3AED" stroke-width="1.8" stroke-linecap="round" stroke-linejoin="round"/></g><text x="22" y="141.0" fill="#0B0F1A" font-family="Inter, Arial, sans-serif" font-size="25" font-weight="600">Entrega y cierre para el cliente</text><text x="22" y="175.25" fill="#526071" font-family="Inter, Arial, sans-serif" font-size="13" font-weight="400">Datos de demostración</text><rect x="22" y="203.1" width="90.609375" height="29" rx="14" fill="#F0FDF4"/><text x="35" y="221.1" fill="#166534" font-family="Inter, Arial, sans-serif" font-size="13" font-weight="600">Entregado</text><text x="22.0" y="265.1" fill="#526071" font-family="Inter, Arial, sans-serif" font-size="13" font-weight="600">Equipo</text><rect x="22.0" y="277.95" width="386.0" height="50" rx="8" fill="white" stroke="#7A8495" stroke-width="1"/><text x="36.0" y="303.95" fill="#0B0F1A" font-family="Inter, Arial, sans-serif" font-size="16" font-weight="400">Samsung Galaxy S24</text><text x="22.0" y="357.95" fill="#526071" font-family="Inter, Arial, sans-serif" font-size="13" font-weight="600">Fecha</text><rect x="22.0" y="370.8" width="386.0" height="50" rx="8" fill="white" stroke="#7A8495" stroke-width="1"/><text x="36.0" y="396.8" fill="#0B0F1A" font-family="Inter, Arial, sans-serif" font-size="16" font-weight="400">Fecha real de entrega</text><text x="22.0" y="450.79999999999995" fill="#526071" font-family="Inter, Arial, sans-serif" font-size="13" font-weight="600">Recibido por</text><rect x="22.0" y="463.65" width="386.0" height="50" rx="8" fill="white" stroke="#7A8495" stroke-width="1"/><text x="36.0" y="489.65" fill="#0B0F1A" font-family="Inter, Arial, sans-serif" font-size="16" font-weight="400">Cliente verificado</text><text x="22.0" y="543.65" fill="#526071" font-family="Inter, Arial, sans-serif" font-size="13" font-weight="600">Condiciónes</text><rect x="22.0" y="556.5" width="386.0" height="50" rx="8" fill="white" stroke="#7A8495" stroke-width="1"/><text x="36.0" y="582.5" fill="#0B0F1A" font-family="Inter, Arial, sans-serif" font-size="16" font-weight="400">Versión aceptada disponible</text><rect x="22" y="633.5" width="386" height="120" rx="12" fill="#F2ECFD"/><g transform="translate(38,652.5) scale(0.8333333333333334)"><path d="M6 3H15L20 8V21H6ZM14 3V9H20M9 13H17M9 17H17" fill="none" stroke="#7C3AED" stroke-width="1.8" stroke-linecap="round" stroke-linejoin="round"/></g><text x="70" y="663.5" fill="#7C3AED" font-family="Inter, Arial, sans-serif" font-size="16" font-weight="600">Tu siguiente paso</text><text x="70" y="691.7" fill="#0B0F1A" font-family="Inter, Arial, sans-serif" font-size="14" font-weight="400">Revisa la información del comercio</text><text x="70" y="712.0" fill="#0B0F1A" font-family="Inter, Arial, sans-serif" font-size="14" font-weight="400">seleccionado. Al confirmar, verás qué ocurrió y</text><text x="70" y="732.3000000000001" fill="#0B0F1A" font-family="Inter, Arial, sans-serif" font-size="14" font-weight="400">cuál es el siguiente paso.</text><g id="CL24.A1" data-action="CL24.A1" role="button" aria-label="Ver comprobante" tabindex="0" style="cursor:pointer"><rect x="22" y="771.5" width="386" height="48" rx="10" fill="#7C3AED"/><text x="40" y="798.5" fill="white" font-family="Inter, Arial, sans-serif" font-size="15" font-weight="600">Ver comprobante</text><g transform="translate(379,786.5) scale(0.75)"><path d="M4 12H20M14 6L20 12L14 18" fill="none" stroke="white" stroke-width="1.8" stroke-linecap="round" stroke-linejoin="round"/></g></g><g id="CL24.A2" data-action="CL24.A2" role="button" aria-label="Solicitar revisión" tabindex="0" style="cursor:pointer"><rect x="22" y="831.5" width="386" height="48" rx="10" fill="white" stroke="#7A8495" stroke-width="1"/><text x="40" y="858.5" fill="#0B0F1A" font-family="Inter, Arial, sans-serif" font-size="15" font-weight="600">Solicitar revisión</text><g transform="translate(379,846.5) scale(0.75)"><path d="M4 12H20M14 6L20 12L14 18" fill="none" stroke="#7C3AED" stroke-width="1.8" stroke-linecap="round" stroke-linejoin="round"/></g></g><g id="CL24.A3" data-action="CL24.A3" role="button" aria-label="Valorar servicio" tabindex="0" style="cursor:pointer"><rect x="22" y="891.5" width="386" height="48" rx="10" fill="white" stroke="#7A8495" stroke-width="1"/><text x="40" y="918.5" fill="#0B0F1A" font-family="Inter, Arial, sans-serif" font-size="15" font-weight="600">Valorar servicio</text><g transform="translate(379,906.5) scale(0.75)"><path d="M4 12H20M14 6L20 12L14 18" fill="none" stroke="#7C3AED" stroke-width="1.8" stroke-linecap="round" stroke-linejoin="round"/></g></g><path d="M0 999.5L430 999.5" fill="none" stroke="#E5E7EB" stroke-width="1"/><rect x="0" y="1000.5" width="430" height="61" rx="0" fill="white"/><g transform="translate(43.75,1009.5) scale(0.8333333333333334)"><path d="M3 3H9V9H3ZM15 3H21V9H15ZM3 15H9V21H3ZM15 15H21V21H15Z" fill="none" stroke="#526071" stroke-width="1.8" stroke-linecap="round" stroke-linejoin="round"/></g><text x="53.75" y="1046.5" fill="#526071" font-family="Inter, Arial, sans-serif" font-size="11" font-weight="400" text-anchor="middle">Inicio</text><g transform="translate(151.25,1009.5) scale(0.8333333333333334)"><path d="M6 3H15L20 8V21H6ZM14 3V9H20M9 13H17M9 17H17" fill="none" stroke="#7C3AED" stroke-width="1.8" stroke-linecap="round" stroke-linejoin="round"/></g><text x="161.25" y="1046.5" fill="#7C3AED" font-family="Inter, Arial, sans-serif" font-size="11" font-weight="400" text-anchor="middle">Órdenes</text><g transform="translate(258.75,1009.5) scale(0.8333333333333334)"><path d="M3 3H21V17H8L3 21Z" fill="none" stroke="#526071" stroke-width="1.8" stroke-linecap="round" stroke-linejoin="round"/></g><text x="268.75" y="1046.5" fill="#526071" font-family="Inter, Arial, sans-serif" font-size="11" font-weight="400" text-anchor="middle">Mensajes</text><g transform="translate(366.25,1009.5) scale(0.8333333333333334)"><path d="M12 3A4 4 0 1 0 12 11A4 4 0 1 0 12 3M4 21V18C4 11 20 11 20 18V21" fill="none" stroke="#526071" stroke-width="1.8" stroke-linecap="round" stroke-linejoin="round"/></g><text x="376.25" y="1046.5" fill="#526071" font-family="Inter, Arial, sans-serif" font-size="11" font-weight="400" text-anchor="middle">Perfil</text></svg>