<svg xmlns="http://www.w3.org/2000/svg" xmlns:xlink="http://www.w3.org/1999/xlink" width="1440" height="990" viewBox="0 0 1440 990" role="img"><title>NAOSIQ - propuesta de interfaz</title><defs><linearGradient id="brand-grad" x1="0" y1="0" x2="1" y2="1"><stop stop-color="#7C3AED"/><stop offset="1" stop-color="#06B6D4"/></linearGradient></defs><rect x="0" y="0" width="1440" height="990" rx="0" fill="#FFFFFF"/><path d="M337 95.5L359 95.5" fill="none" stroke="#06B6D4" stroke-width="3"/><g transform="translate(343,85.5) scale(0.8333333333333334)"><path d="M4 12H20M14 6L20 12L14 18" fill="none" stroke="#06B6D4" stroke-width="1.8" stroke-linecap="round" stroke-linejoin="round"/></g><path d="M688 95.5L710 95.5" fill="none" stroke="#06B6D4" stroke-width="3"/><g transform="translate(694,85.5) scale(0.8333333333333334)"><path d="M4 12H20M14 6L20 12L14 18" fill="none" stroke="#06B6D4" stroke-width="1.8" stroke-linecap="round" stroke-linejoin="round"/></g><path d="M1039 95.5L1061 95.5" fill="none" stroke="#06B6D4" stroke-width="3"/><g transform="translate(1045,85.5) scale(0.8333333333333334)"><path d="M4 12H20M14 6L20 12L14 18" fill="none" stroke="#06B6D4" stroke-width="1.8" stroke-linecap="round" stroke-linejoin="round"/></g><path d="M1227.0 172L1227.0 230" fill="none" stroke="#06B6D4" stroke-width="3"/><path d="M1221.0 222L1227.0 230L1233.0 222" fill="none" stroke="#06B6D4" stroke-width="2.5"/><path d="M1064 310.5L1042 310.5" fill="none" stroke="#06B6D4" stroke-width="3"/><path d="M1049 304.5L1041 310.5L1049 316.5" fill="none" stroke="#06B6D4" stroke-width="2.5"/><rect x="14" y="24" width="320" height="143" rx="14" fill="#F7F8FC" stroke="#E5E7EB" stroke-width="1"/><circle cx="38" cy="49" r="14" fill="#7C3AED"/><text x="38" y="52.0" fill="white" font-family="Inter, Arial, sans-serif" font-size="14" font-weight="600" text-anchor="middle">1</text><text x="61" y="51.0" fill="#7C3AED" font-family="Inter, Arial, sans-serif" font-size="13" font-weight="600">SU14</text><text x="32" y="91.0" fill="#0B0F1A" font-family="Inter, Arial, sans-serif" font-size="19" font-weight="600">Soporte e incidentes</text><text x="32" y="140.0" fill="#526071" font-family="Inter, Arial, sans-serif" font-size="12" font-weight="400">Super Usuario</text><text x="19" y="190.0" fill="#526071" font-family="Inter, Arial, sans-serif" font-size="13" font-weight="400">Inicio del recorrido</text><rect x="365" y="24" width="320" height="143" rx="14" fill="#F7F8FC" stroke="#E5E7EB" stroke-width="1"/><circle cx="389" cy="49" r="14" fill="#7C3AED"/><text x="389" y="52.0" fill="white" font-family="Inter, Arial, sans-serif" font-size="14" font-weight="600" text-anchor="middle">2</text><text x="412" y="51.0" fill="#7C3AED" font-family="Inter, Arial, sans-serif" font-size="13" font-weight="600">SU11</text><text x="383" y="91.0" fill="#0B0F1A" font-family="Inter, Arial, sans-serif" font-size="19" font-weight="600">Integraciones globales</text><text x="383" y="140.0" fill="#526071" font-family="Inter, Arial, sans-serif" font-size="12" font-weight="400">Super Usuario</text><text x="370" y="190.0" fill="#526071" font-family="Inter, Arial, sans-serif" font-size="13" font-weight="400">Menú: revisar integraciones</text><rect x="716" y="24" width="320" height="143" rx="14" fill="#F7F8FC" stroke="#E5E7EB" stroke-width="1"/><circle cx="740" cy="49" r="14" fill="#7C3AED"/><text x="740" y="52.0" fill="white" font-family="Inter, Arial, sans-serif" font-size="14" font-weight="600" text-anchor="middle">3</text><text x="763" y="51.0" fill="#7C3AED" font-family="Inter, Arial, sans-serif" font-size="13" font-weight="600">SU12</text><text x="734" y="91.0" fill="#0B0F1A" font-family="Inter, Arial, sans-serif" font-size="19" font-weight="600">WhatsApp global</text><text x="734" y="140.0" fill="#526071" font-family="Inter, Arial, sans-serif" font-size="12" font-weight="400">Super Usuario</text><text x="721" y="190.0" fill="#526071" font-family="Inter, Arial, sans-serif" font-size="13" font-weight="400">Menú: WhatsApp global</text><rect x="1067" y="24" width="320" height="143" rx="14" fill="#F7F8FC" stroke="#E5E7EB" stroke-width="1"/><circle cx="1091" cy="49" r="14" fill="#7C3AED"/><text x="1091" y="52.0" fill="white" font-family="Inter, Arial, sans-serif" font-size="14" font-weight="600" text-anchor="middle">4</text><text x="1114" y="51.0" fill="#7C3AED" font-family="Inter, Arial, sans-serif" font-size="13" font-weight="600">SU15</text><text x="1085" y="91.0" fill="#0B0F1A" font-family="Inter, Arial, sans-serif" font-size="19" font-weight="600">Configuración global</text><text x="1085" y="140.0" fill="#526071" font-family="Inter, Arial, sans-serif" font-size="12" font-weight="400">Super Usuario</text><text x="1072" y="190.0" fill="#526071" font-family="Inter, Arial, sans-serif" font-size="13" font-weight="400">Menú: políticas generales</text><rect x="1067" y="239" width="320" height="143" rx="14" fill="#F7F8FC" stroke="#E5E7EB" stroke-width="1"/><circle cx="1091" cy="264" r="14" fill="#7C3AED"/><text x="1091" y="267.0" fill="white" font-family="Inter, Arial, sans-serif" font-size="14" font-weight="600" text-anchor="middle">5</text><text x="1114" y="266.0" fill="#7C3AED" font-family="Inter, Arial, sans-serif" font-size="13" font-weight="600">SU13</text><text x="1085" y="306.0" fill="#0B0F1A" font-family="Inter, Arial, sans-serif" font-size="19" font-weight="600">Auditoría global</text><text x="1085" y="355.0" fill="#526071" font-family="Inter, Arial, sans-serif" font-size="12" font-weight="400">Super Usuario</text><text x="1072" y="405.0" fill="#526071" font-family="Inter, Arial, sans-serif" font-size="13" font-weight="400">Menú: comprobar auditoría</text><rect x="716" y="239" width="320" height="143" rx="14" fill="#E9FAFD" stroke="#E5E7EB" stroke-width="1"/><circle cx="740" cy="264" r="14" fill="#0E7490"/><text x="740" y="267.0" fill="white" font-family="Inter, Arial, sans-serif" font-size="14" font-weight="600" text-anchor="middle">6</text><text x="763" y="266.0" fill="#0E7490" font-family="Inter, Arial, sans-serif" font-size="13" font-weight="600">AU06</text><text x="734" y="306.0" fill="#0B0F1A" font-family="Inter, Arial, sans-serif" font-size="19" font-weight="600">Centro de avisos y ayuda</text><text x="734" y="355.0" fill="#526071" font-family="Inter, Arial, sans-serif" font-size="12" font-weight="400">Todos</text><text x="721" y="405.0" fill="#526071" font-family="Inter, Arial, sans-serif" font-size="13" font-weight="400">Otra experiencia: avisos y ayuda</text><rect x="14" y="495" width="672" height="224" rx="14" fill="#FFFBEB"/><text x="34" y="531.0" fill="#92400E" font-family="Inter, Arial, sans-serif" font-size="18" font-weight="600">Prueba de conexión confirma servicio?</text><text x="34" y="591.0" fill="#0B0F1A" font-family="Inter, Arial, sans-serif" font-size="16" font-weight="400">SI / Actualizar estado del conector.</text><text x="34" y="643.0" fill="#0B0F1A" font-family="Inter, Arial, sans-serif" font-size="16" font-weight="400">NO / Conservar credencial protegida; mostrar causa segura.</text><text x="34" y="695.0" fill="#92400E" font-family="Inter, Arial, sans-serif" font-size="13" font-weight="600">Retorno: SU11</text><rect x="719" y="495" width="672" height="224" rx="14" fill="#FFFBEB"/><text x="739" y="531.0" fill="#92400E" font-family="Inter, Arial, sans-serif" font-size="18" font-weight="600">Incidente resuelto?</text><text x="739" y="591.0" fill="#0B0F1A" font-family="Inter, Arial, sans-serif" font-size="16" font-weight="400">SI / Cerrar con evidencia/respuesta.</text><text x="739" y="643.0" fill="#0B0F1A" font-family="Inter, Arial, sans-serif" font-size="16" font-weight="400">NO / Mantener abierto y conservar el borrador de respuesta.</text><text x="739" y="695.0" fill="#92400E" font-family="Inter, Arial, sans-serif" font-size="13" font-weight="600">Retorno: SU14</text><text x="14" y="765.0" fill="#7C3AED" font-family="Inter, Arial, sans-serif" font-size="13" font-weight="600">CONTROL DE CONTINUIDAD</text><g transform="translate(18,785) scale(0.8333333333333334)"><path d="M4 12L9 17L20 6" fill="none" stroke="#0E7490" stroke-width="1.8" stroke-linecap="round" stroke-linejoin="round"/></g><text x="50" y="800.0" fill="#0B0F1A" font-family="Inter, Arial, sans-serif" font-size="16" font-weight="400">Las acciones globales solo existen en CRM Maestro.</text><g transform="translate(18,822.2) scale(0.8333333333333334)"><path d="M4 12L9 17L20 6" fill="none" stroke="#0E7490" stroke-width="1.8" stroke-linecap="round" stroke-linejoin="round"/></g><text x="50" y="837.2" fill="#0B0F1A" font-family="Inter, Arial, sans-serif" font-size="16" font-weight="400">Soporte del comercio reutiliza un formulario restringido; no entra al Maestro.</text><text x="14" y="958.0" fill="#526071" font-family="Inter, Arial, sans-serif" font-size="13" font-weight="400">Datos y rutas de demostración. Las entregas a otro rol se revisan como otra sesión; no conceden acceso.</text></svg>