<svg xmlns="http://www.w3.org/2000/svg" xmlns:xlink="http://www.w3.org/1999/xlink" width="1440" height="990" viewBox="0 0 1440 990" role="img"><title>NAOSIQ - propuesta de interfaz</title><defs><linearGradient id="brand-grad" x1="0" y1="0" x2="1" y2="1"><stop stop-color="#7C3AED"/><stop offset="1" stop-color="#06B6D4"/></linearGradient></defs><rect x="0" y="0" width="1440" height="990" rx="0" fill="#FFFFFF"/><path d="M337 95.5L359 95.5" fill="none" stroke="#06B6D4" stroke-width="3"/><g transform="translate(343,85.5) scale(0.8333333333333334)"><path d="M4 12H20M14 6L20 12L14 18" fill="none" stroke="#06B6D4" stroke-width="1.8" stroke-linecap="round" stroke-linejoin="round"/></g><path d="M688 95.5L710 95.5" fill="none" stroke="#06B6D4" stroke-width="3"/><g transform="translate(694,85.5) scale(0.8333333333333334)"><path d="M4 12H20M14 6L20 12L14 18" fill="none" stroke="#06B6D4" stroke-width="1.8" stroke-linecap="round" stroke-linejoin="round"/></g><path d="M1039 95.5L1061 95.5" fill="none" stroke="#06B6D4" stroke-width="3"/><g transform="translate(1045,85.5) scale(0.8333333333333334)"><path d="M4 12H20M14 6L20 12L14 18" fill="none" stroke="#06B6D4" stroke-width="1.8" stroke-linecap="round" stroke-linejoin="round"/></g><path d="M1227.0 172L1227.0 230" fill="none" stroke="#06B6D4" stroke-width="3"/><path d="M1221.0 222L1227.0 230L1233.0 222" fill="none" stroke="#06B6D4" stroke-width="2.5"/><path d="M1064 310.5L1042 310.5" fill="none" stroke="#06B6D4" stroke-width="3"/><path d="M1049 304.5L1041 310.5L1049 316.5" fill="none" stroke="#06B6D4" stroke-width="2.5"/><rect x="14" y="24" width="320" height="143" rx="14" fill="#F7F8FC" stroke="#E5E7EB" stroke-width="1"/><circle cx="38" cy="49" r="14" fill="#7C3AED"/><text x="38" y="52.0" fill="white" font-family="Inter, Arial, sans-serif" font-size="14" font-weight="600" text-anchor="middle">1</text><text x="61" y="51.0" fill="#7C3AED" font-family="Inter, Arial, sans-serif" font-size="13" font-weight="600">AD34</text><text x="32" y="91.0" fill="#0B0F1A" font-family="Inter, Arial, sans-serif" font-size="19" font-weight="600">Numeración y plantillas</text><text x="32" y="140.0" fill="#526071" font-family="Inter, Arial, sans-serif" font-size="12" font-weight="400">Administrador</text><text x="19" y="190.0" fill="#526071" font-family="Inter, Arial, sans-serif" font-size="13" font-weight="400">Inicio del recorrido</text><rect x="365" y="24" width="320" height="143" rx="14" fill="#F7F8FC" stroke="#E5E7EB" stroke-width="1"/><circle cx="389" cy="49" r="14" fill="#7C3AED"/><text x="389" y="52.0" fill="white" font-family="Inter, Arial, sans-serif" font-size="14" font-weight="600" text-anchor="middle">2</text><text x="412" y="51.0" fill="#7C3AED" font-family="Inter, Arial, sans-serif" font-size="13" font-weight="600">CL19</text><text x="383" y="91.0" fill="#0B0F1A" font-family="Inter, Arial, sans-serif" font-size="19" font-weight="600">Visor de documento PDF</text><text x="383" y="140.0" fill="#526071" font-family="Inter, Arial, sans-serif" font-size="12" font-weight="400">Cliente</text><text x="370" y="190.0" fill="#526071" font-family="Inter, Arial, sans-serif" font-size="13" font-weight="400">Previsualizar plantilla en contexto del negocio</text><rect x="716" y="24" width="320" height="143" rx="14" fill="#F7F8FC" stroke="#E5E7EB" stroke-width="1"/><circle cx="740" cy="49" r="14" fill="#7C3AED"/><text x="740" y="52.0" fill="white" font-family="Inter, Arial, sans-serif" font-size="14" font-weight="600" text-anchor="middle">3</text><text x="763" y="51.0" fill="#7C3AED" font-family="Inter, Arial, sans-serif" font-size="13" font-weight="600">AD32</text><text x="734" y="91.0" fill="#0B0F1A" font-family="Inter, Arial, sans-serif" font-size="19" font-weight="600">Documentos y recibos</text><text x="734" y="140.0" fill="#526071" font-family="Inter, Arial, sans-serif" font-size="12" font-weight="400">Administrador</text><text x="721" y="190.0" fill="#526071" font-family="Inter, Arial, sans-serif" font-size="13" font-weight="400">Volver a documentos del negocio</text><rect x="1067" y="24" width="320" height="143" rx="14" fill="#F7F8FC" stroke="#E5E7EB" stroke-width="1"/><circle cx="1091" cy="49" r="14" fill="#7C3AED"/><text x="1091" y="52.0" fill="white" font-family="Inter, Arial, sans-serif" font-size="14" font-weight="600" text-anchor="middle">4</text><text x="1114" y="51.0" fill="#7C3AED" font-family="Inter, Arial, sans-serif" font-size="13" font-weight="600">VR04</text><text x="1085" y="91.0" fill="#0B0F1A" font-family="Inter, Arial, sans-serif" font-size="19" font-weight="600">Vista previa e impresión</text><text x="1085" y="140.0" fill="#526071" font-family="Inter, Arial, sans-serif" font-size="12" font-weight="400">Todos con autorización documental</text><text x="1072" y="190.0" fill="#526071" font-family="Inter, Arial, sans-serif" font-size="13" font-weight="400">Imprimir voucher autorizado</text><rect x="1067" y="239" width="320" height="143" rx="14" fill="#E9FAFD" stroke="#E5E7EB" stroke-width="1"/><circle cx="1091" cy="264" r="14" fill="#0E7490"/><text x="1091" y="267.0" fill="white" font-family="Inter, Arial, sans-serif" font-size="14" font-weight="600" text-anchor="middle">5</text><text x="1114" y="266.0" fill="#0E7490" font-family="Inter, Arial, sans-serif" font-size="13" font-weight="600">AU06</text><text x="1085" y="306.0" fill="#0B0F1A" font-family="Inter, Arial, sans-serif" font-size="19" font-weight="600">Centro de avisos y ayuda</text><text x="1085" y="355.0" fill="#526071" font-family="Inter, Arial, sans-serif" font-size="12" font-weight="400">Todos</text><text x="1072" y="405.0" fill="#526071" font-family="Inter, Arial, sans-serif" font-size="13" font-weight="400">Evento: documento preparado</text><rect x="716" y="239" width="320" height="143" rx="14" fill="#F7F8FC" stroke="#E5E7EB" stroke-width="1"/><circle cx="740" cy="264" r="14" fill="#7C3AED"/><text x="740" y="267.0" fill="white" font-family="Inter, Arial, sans-serif" font-size="14" font-weight="600" text-anchor="middle">6</text><text x="763" y="266.0" fill="#7C3AED" font-family="Inter, Arial, sans-serif" font-size="13" font-weight="600">CL19</text><text x="734" y="306.0" fill="#0B0F1A" font-family="Inter, Arial, sans-serif" font-size="19" font-weight="600">Visor de documento PDF</text><text x="734" y="355.0" fill="#526071" font-family="Inter, Arial, sans-serif" font-size="12" font-weight="400">Cliente</text><text x="721" y="405.0" fill="#526071" font-family="Inter, Arial, sans-serif" font-size="13" font-weight="400">Abrir notificación documental autorizada</text><rect x="14" y="495" width="672" height="224" rx="14" fill="#FFFBEB"/><text x="34" y="531.0" fill="#92400E" font-family="Inter, Arial, sans-serif" font-size="18" font-weight="600">Se usa vista previa de plantilla?</text><text x="34" y="591.0" fill="#0B0F1A" font-family="Inter, Arial, sans-serif" font-size="16" font-weight="400">SI / Marcar EJEMPLO / sin hecho real.</text><text x="34" y="643.0" fill="#0B0F1A" font-family="Inter, Arial, sans-serif" font-size="16" font-weight="400">NO / No asignar número oficial ni simular ingreso.</text><text x="34" y="695.0" fill="#92400E" font-family="Inter, Arial, sans-serif" font-size="13" font-weight="600">Retorno: AD34</text><rect x="719" y="495" width="672" height="224" rx="14" fill="#FFFBEB"/><text x="739" y="531.0" fill="#92400E" font-family="Inter, Arial, sans-serif" font-size="18" font-weight="600">Documento listo pero enlace expiró?</text><text x="739" y="591.0" fill="#0B0F1A" font-family="Inter, Arial, sans-serif" font-size="16" font-weight="400">SI / Revalidar permiso y emitir nuevo enlace.</text><text x="739" y="643.0" fill="#0B0F1A" font-family="Inter, Arial, sans-serif" font-size="16" font-weight="400">NO / No generar otro hecho ni otro número por descarga fallida.</text><text x="739" y="695.0" fill="#92400E" font-family="Inter, Arial, sans-serif" font-size="13" font-weight="600">Retorno: AD32</text><text x="14" y="765.0" fill="#7C3AED" font-family="Inter, Arial, sans-serif" font-size="13" font-weight="600">CONTROL DE CONTINUIDAD</text><g transform="translate(18,785) scale(0.8333333333333334)"><path d="M4 12L9 17L20 6" fill="none" stroke="#0E7490" stroke-width="1.8" stroke-linecap="round" stroke-linejoin="round"/></g><text x="50" y="800.0" fill="#0B0F1A" font-family="Inter, Arial, sans-serif" font-size="16" font-weight="400">Copiar enlace requiere alcance autorizado; no URL pública permanente.</text><g transform="translate(18,822.2) scale(0.8333333333333334)"><path d="M4 12L9 17L20 6" fill="none" stroke="#0E7490" stroke-width="1.8" stroke-linecap="round" stroke-linejoin="round"/></g><text x="50" y="837.2" fill="#0B0F1A" font-family="Inter, Arial, sans-serif" font-size="16" font-weight="400">VR04 vuelve al invocador: personal a AD32/VR01/VR03, cliente a VR02.</text><text x="14" y="958.0" fill="#526071" font-family="Inter, Arial, sans-serif" font-size="13" font-weight="400">Datos y rutas de demostración. Las entregas a otro rol se revisan como otra sesión; no conceden acceso.</text></svg>